<svg xmlns="http://www.w3.org/2000/svg" xmlns:xlink="http://www.w3.org/1999/xlink" version="1.1" class="marks" width="1063" height="557" viewBox="0 0 1063 557"><rect width="1063" height="557" fill="white"/><g fill="none" stroke-miterlimit="10" transform="translate(58,10)"><g class="mark-group role-frame root" role="graphics-object" aria-roledescription="group mark container"><g transform="translate(0,0)"><path class="background" aria-hidden="true" d="M0.5,0.5h1000v400h-1000Z" stroke="#ddd"/><g><g class="mark-group role-axis" aria-hidden="true"><g transform="translate(0.5,0.5)"><path class="background" aria-hidden="true" d="M0,0h0v0h0Z" pointer-events="none"/><g><g class="mark-rule role-axis-grid" pointer-events="none"><line transform="translate(0,400)" x2="1000" y2="0" stroke="#ddd" stroke-width="1" opacity="1"/><line transform="translate(0,364)" x2="1000" y2="0" stroke="#ddd" stroke-width="1" opacity="1"/><line transform="translate(0,327)" x2="1000" y2="0" stroke="#ddd" stroke-width="1" opacity="1"/><line transform="translate(0,291)" x2="1000" y2="0" stroke="#ddd" stroke-width="1" opacity="1"/><line transform="translate(0,255)" x2="1000" y2="0" stroke="#ddd" stroke-width="1" opacity="1"/><line transform="translate(0,218)" x2="1000" y2="0" stroke="#ddd" stroke-width="1" opacity="1"/><line transform="translate(0,182)" x2="1000" y2="0" stroke="#ddd" stroke-width="1" opacity="1"/><line transform="translate(0,145)" x2="1000" y2="0" stroke="#ddd" stroke-width="1" opacity="1"/><line transform="translate(0,109)" x2="1000" y2="0" stroke="#ddd" stroke-width="1" opacity="1"/><line transform="translate(0,73)" x2="1000" y2="0" stroke="#ddd" stroke-width="1" opacity="1"/><line transform="translate(0,36)" x2="1000" y2="0" stroke="#ddd" stroke-width="1" opacity="1"/><line transform="translate(0,0)" x2="1000" y2="0" stroke="#ddd" stroke-width="1" opacity="1"/></g></g><path class="foreground" aria-hidden="true" d="" pointer-events="none" display="none"/></g></g><g class="mark-group role-axis" role="graphics-symbol" aria-roledescription="axis" aria-label="X-axis titled 'name' for a discrete scale with 84 values: Adam West, Alan Rickman, Alan Thicke, Alexis Arquette, Anthony Bourdain, ending with Zsa Zsa Gabor"><g transform="translate(0.5,400.5)"><path class="background" aria-hidden="true" d="M0,0h0v0h0Z" pointer-events="none"/><g><g class="mark-rule role-axis-tick" pointer-events="none"><line transform="translate(5,0)" x2="0" y2="5" stroke="#888" stroke-width="1" opacity="1"/><line transform="translate(17,0)" x2="0" y2="5" stroke="#888" stroke-width="1" opacity="1"/><line transform="translate(29,0)" x2="0" y2="5" stroke="#888" stroke-width="1" opacity="1"/><line transform="translate(41,0)" x2="0" y2="5" stroke="#888" stroke-width="1" opacity="1"/><line transform="translate(53,0)" x2="0" y2="5" stroke="#888" stroke-width="1" opacity="1"/><line transform="translate(65,0)" x2="0" y2="5" stroke="#888" stroke-width="1" opacity="1"/><line transform="translate(77,0)" x2="0" y2="5" stroke="#888" stroke-width="1" opacity="1"/><line transform="translate(89,0)" x2="0" y2="5" stroke="#888" stroke-width="1" opacity="1"/><line transform="translate(101,0)" x2="0" y2="5" stroke="#888" stroke-width="1" opacity="1"/><line transform="translate(113,0)" x2="0" y2="5" stroke="#888" stroke-width="1" opacity="1"/><line transform="translate(124,0)" x2="0" y2="5" stroke="#888" stroke-width="1" opacity="1"/><line transform="translate(136,0)" x2="0" y2="5" stroke="#888" stroke-width="1" opacity="1"/><line transform="translate(148,0)" x2="0" y2="5" stroke="#888" stroke-width="1" opacity="1"/><line transform="translate(160,0)" x2="0" y2="5" stroke="#888" stroke-width="1" opacity="1"/><line transform="translate(172,0)" x2="0" y2="5" stroke="#888" stroke-width="1" opacity="1"/><line transform="translate(184,0)" x2="0" y2="5" stroke="#888" stroke-width="1" opacity="1"/><line transform="translate(196,0)" x2="0" y2="5" stroke="#888" stroke-width="1" opacity="1"/><line transform="translate(208,0)" x2="0" y2="5" stroke="#888" stroke-width="1" opacity="1"/><line transform="translate(220,0)" x2="0" y2="5" stroke="#888" stroke-width="1" opacity="1"/><line transform="translate(232,0)" x2="0" y2="5" stroke="#888" stroke-width="1" opacity="1"/><line transform="translate(244,0)" x2="0" y2="5" stroke="#888" stroke-width="1" opacity="1"/><line transform="translate(255,0)" x2="0" y2="5" stroke="#888" stroke-width="1" opacity="1"/><line transform="translate(267,0)" x2="0" y2="5" stroke="#888" stroke-width="1" opacity="1"/><line transform="translate(279,0)" x2="0" y2="5" stroke="#888" stroke-width="1" opacity="1"/><line transform="translate(291,0)" x2="0" y2="5" stroke="#888" stroke-width="1" opacity="1"/><line transform="translate(303,0)" x2="0" y2="5" stroke="#888" stroke-width="1" opacity="1"/><line transform="translate(315,0)" x2="0" y2="5" stroke="#888" stroke-width="1" opacity="1"/><line transform="translate(327,0)" x2="0" y2="5" stroke="#888" stroke-width="1" opacity="1"/><line transform="translate(339,0)" x2="0" y2="5" stroke="#888" stroke-width="1" opacity="1"/><line transform="translate(351,0)" x2="0" y2="5" stroke="#888" stroke-width="1" opacity="1"/><line transform="translate(363,0)" x2="0" y2="5" stroke="#888" stroke-width="1" opacity="1"/><line transform="translate(374,0)" x2="0" y2="5" stroke="#888" stroke-width="1" opacity="1"/><line transform="translate(386,0)" x2="0" y2="5" stroke="#888" stroke-width="1" opacity="1"/><line transform="translate(398,0)" x2="0" y2="5" stroke="#888" stroke-width="1" opacity="1"/><line transform="translate(410,0)" x2="0" y2="5" stroke="#888" stroke-width="1" opacity="1"/><line transform="translate(422,0)" x2="0" y2="5" stroke="#888" stroke-width="1" opacity="1"/><line transform="translate(434,0)" x2="0" y2="5" stroke="#888" stroke-width="1" opacity="1"/><line transform="translate(446,0)" x2="0" y2="5" stroke="#888" stroke-width="1" opacity="1"/><line transform="translate(458,0)" x2="0" y2="5" stroke="#888" stroke-width="1" opacity="1"/><line transform="translate(470,0)" x2="0" y2="5" stroke="#888" stroke-width="1" opacity="1"/><line transform="translate(482,0)" x2="0" y2="5" stroke="#888" stroke-width="1" opacity="1"/><line transform="translate(494,0)" x2="0" y2="5" stroke="#888" stroke-width="1" opacity="1"/><line transform="translate(505,0)" x2="0" y2="5" stroke="#888" stroke-width="1" opacity="1"/><line transform="translate(517,0)" x2="0" y2="5" stroke="#888" stroke-width="1" opacity="1"/><line transform="translate(529,0)" x2="0" y2="5" stroke="#888" stroke-width="1" opacity="1"/><line transform="translate(541,0)" x2="0" y2="5" stroke="#888" stroke-width="1" opacity="1"/><line transform="translate(553,0)" x2="0" y2="5" stroke="#888" stroke-width="1" opacity="1"/><line transform="translate(565,0)" x2="0" y2="5" stroke="#888" stroke-width="1" opacity="1"/><line transform="translate(577,0)" x2="0" y2="5" stroke="#888" stroke-width="1" opacity="1"/><line transform="translate(589,0)" x2="0" y2="5" stroke="#888" stroke-width="1" opacity="1"/><line transform="translate(601,0)" x2="0" y2="5" stroke="#888" stroke-width="1" opacity="1"/><line transform="translate(613,0)" x2="0" y2="5" stroke="#888" stroke-width="1" opacity="1"/><line transform="translate(625,0)" x2="0" y2="5" stroke="#888" stroke-width="1" opacity="1"/><line transform="translate(636,0)" x2="0" y2="5" stroke="#888" stroke-width="1" opacity="1"/><line transform="translate(648,0)" x2="0" y2="5" stroke="#888" stroke-width="1" opacity="1"/><line transform="translate(660,0)" x2="0" y2="5" stroke="#888" stroke-width="1" opacity="1"/><line transform="translate(672,0)" x2="0" y2="5" stroke="#888" stroke-width="1" opacity="1"/><line transform="translate(684,0)" x2="0" y2="5" stroke="#888" stroke-width="1" opacity="1"/><line transform="translate(696,0)" x2="0" y2="5" stroke="#888" stroke-width="1" opacity="1"/><line transform="translate(708,0)" x2="0" y2="5" stroke="#888" stroke-width="1" opacity="1"/><line transform="translate(720,0)" x2="0" y2="5" stroke="#888" stroke-width="1" opacity="1"/><line transform="translate(732,0)" x2="0" y2="5" stroke="#888" stroke-width="1" opacity="1"/><line transform="translate(744,0)" x2="0" y2="5" stroke="#888" stroke-width="1" opacity="1"/><line transform="translate(755,0)" x2="0" y2="5" stroke="#888" stroke-width="1" opacity="1"/><line transform="translate(767,0)" x2="0" y2="5" stroke="#888" stroke-width="1" opacity="1"/><line transform="translate(779,0)" x2="0" y2="5" stroke="#888" stroke-width="1" opacity="1"/><line transform="translate(791,0)" x2="0" y2="5" stroke="#888" stroke-width="1" opacity="1"/><line transform="translate(803,0)" x2="0" y2="5" stroke="#888" stroke-width="1" opacity="1"/><line transform="translate(815,0)" x2="0" y2="5" stroke="#888" stroke-width="1" opacity="1"/><line transform="translate(827,0)" x2="0" y2="5" stroke="#888" stroke-width="1" opacity="1"/><line transform="translate(839,0)" x2="0" y2="5" stroke="#888" stroke-width="1" opacity="1"/><line transform="translate(851,0)" x2="0" y2="5" stroke="#888" stroke-width="1" opacity="1"/><line transform="translate(863,0)" x2="0" y2="5" stroke="#888" stroke-width="1" opacity="1"/><line transform="translate(875,0)" x2="0" y2="5" stroke="#888" stroke-width="1" opacity="1"/><line transform="translate(886,0)" x2="0" y2="5" stroke="#888" stroke-width="1" opacity="1"/><line transform="translate(898,0)" x2="0" y2="5" stroke="#888" stroke-width="1" opacity="1"/><line transform="translate(910,0)" x2="0" y2="5" stroke="#888" stroke-width="1" opacity="1"/><line transform="translate(922,0)" x2="0" y2="5" stroke="#888" stroke-width="1" opacity="1"/><line transform="translate(934,0)" x2="0" y2="5" stroke="#888" stroke-width="1" opacity="1"/><line transform="translate(946,0)" x2="0" y2="5" stroke="#888" stroke-width="1" opacity="1"/><line transform="translate(958,0)" x2="0" y2="5" stroke="#888" stroke-width="1" opacity="1"/><line transform="translate(970,0)" x2="0" y2="5" stroke="#888" stroke-width="1" opacity="1"/><line transform="translate(982,0)" x2="0" y2="5" stroke="#888" stroke-width="1" opacity="1"/><line transform="translate(994,0)" x2="0" y2="5" stroke="#888" stroke-width="1" opacity="1"/></g><g class="mark-text role-axis-label" pointer-events="none"><text text-anchor="end" transform="translate(5.452380952380931,7) rotate(270) translate(0,3)" font-family="sans-serif" font-size="10px" fill="#000" opacity="1">Adam West</text><text text-anchor="end" transform="translate(17.357142857142836,7) rotate(270) translate(0,3)" font-family="sans-serif" font-size="10px" fill="#000" opacity="1">Alan Rickman</text><text text-anchor="end" transform="translate(29.26190476190474,7) rotate(270) translate(0,3)" font-family="sans-serif" font-size="10px" fill="#000" opacity="1">Alan Thicke</text><text text-anchor="end" transform="translate(41.16666666666664,7) rotate(270) translate(0,3)" font-family="sans-serif" font-size="10px" fill="#000" opacity="1">Alexis Arquette</text><text text-anchor="end" transform="translate(53.071428571428555,7) rotate(270) translate(0,3)" font-family="sans-serif" font-size="10px" fill="#000" opacity="1">Anthony Bourdain</text><text text-anchor="end" transform="translate(64.97619047619045,7) rotate(270) translate(0,3)" font-family="sans-serif" font-size="10px" fill="#000" opacity="1">Anton Yelchin</text><text text-anchor="end" transform="translate(76.88095238095237,7) rotate(270) translate(0,3)" font-family="sans-serif" font-size="10px" fill="#000" opacity="1">Antonin Scalia</text><text text-anchor="end" transform="translate(88.78571428571428,7) rotate(270) translate(0,3)" font-family="sans-serif" font-size="10px" fill="#000" opacity="1">Arnold Palmer</text><text text-anchor="end" transform="translate(100.69047619047618,7) rotate(270) translate(0,3)" font-family="sans-serif" font-size="10px" fill="#000" opacity="1">Avicii</text><text text-anchor="end" transform="translate(112.59523809523807,7) rotate(270) translate(0,3)" font-family="sans-serif" font-size="10px" fill="#000" opacity="1">Barbara Bush</text><text text-anchor="end" transform="translate(124.49999999999999,7) rotate(270) translate(0,3)" font-family="sans-serif" font-size="10px" fill="#000" opacity="1">Bhumibol Adulyadej</text><text text-anchor="end" transform="translate(136.4047619047619,7) rotate(270) translate(0,3)" font-family="sans-serif" font-size="10px" fill="#000" opacity="1">Bill Paxton</text><text text-anchor="end" transform="translate(148.3095238095238,7) rotate(270) translate(0,3)" font-family="sans-serif" font-size="10px" fill="#000" opacity="1">Billy Graham</text><text text-anchor="end" transform="translate(160.2142857142857,7) rotate(270) translate(0,3)" font-family="sans-serif" font-size="10px" fill="#000" opacity="1">Bruce Forsyth</text><text text-anchor="end" transform="translate(172.11904761904762,7) rotate(270) translate(0,3)" font-family="sans-serif" font-size="10px" fill="#000" opacity="1">Caroline Aherne</text><text text-anchor="end" transform="translate(184.02380952380952,7) rotate(270) translate(0,3)" font-family="sans-serif" font-size="10px" fill="#000" opacity="1">Carrie Fisher</text><text text-anchor="end" transform="translate(195.92857142857142,7) rotate(270) translate(0,3)" font-family="sans-serif" font-size="10px" fill="#000" opacity="1">Charles Krauthammer</text><text text-anchor="end" transform="translate(207.83333333333331,7) rotate(270) translate(0,3)" font-family="sans-serif" font-size="10px" fill="#000" opacity="1">Charles Manson</text><text text-anchor="end" transform="translate(219.7380952380952,7) rotate(270) translate(0,3)" font-family="sans-serif" font-size="10px" fill="#000" opacity="1">Charlie Murphy</text><text text-anchor="end" transform="translate(231.64285714285714,7) rotate(270) translate(0,3)" font-family="sans-serif" font-size="10px" fill="#000" opacity="1">Chester Bennington</text><text text-anchor="end" transform="translate(243.54761904761904,7) rotate(270) translate(0,3)" font-family="sans-serif" font-size="10px" fill="#000" opacity="1">Chris Cornell</text><text text-anchor="end" transform="translate(255.45238095238093,7) rotate(270) translate(0,3)" font-family="sans-serif" font-size="10px" fill="#000" opacity="1">Christina Grimmie</text><text text-anchor="end" transform="translate(267.35714285714283,7) rotate(270) translate(0,3)" font-family="sans-serif" font-size="10px" fill="#000" opacity="1">Chuck Berry</text><text text-anchor="end" transform="translate(279.2619047619047,7) rotate(270) translate(0,3)" font-family="sans-serif" font-size="10px" fill="#000" opacity="1">Chyna</text><text text-anchor="end" transform="translate(291.16666666666663,7) rotate(270) translate(0,3)" font-family="sans-serif" font-size="10px" fill="#000" opacity="1">David Bowie</text><text text-anchor="end" transform="translate(303.07142857142856,7) rotate(270) translate(0,3)" font-family="sans-serif" font-size="10px" fill="#000" opacity="1">David Cassidy</text><text text-anchor="end" transform="translate(314.9761904761904,7) rotate(270) translate(0,3)" font-family="sans-serif" font-size="10px" fill="#000" opacity="1">David Rockefeller</text><text text-anchor="end" transform="translate(326.88095238095235,7) rotate(270) translate(0,3)" font-family="sans-serif" font-size="10px" fill="#000" opacity="1">Debbie Reynolds</text><text text-anchor="end" transform="translate(338.7857142857143,7) rotate(270) translate(0,3)" font-family="sans-serif" font-size="10px" fill="#000" opacity="1">Dolores O'Riordan</text><text text-anchor="end" transform="translate(350.69047619047615,7) rotate(270) translate(0,3)" font-family="sans-serif" font-size="10px" fill="#000" opacity="1">Don Rickles</text><text text-anchor="end" transform="translate(362.5952380952381,7) rotate(270) translate(0,3)" font-family="sans-serif" font-size="10px" fill="#000" opacity="1">Fidel Castro</text><text text-anchor="end" transform="translate(374.49999999999994,7) rotate(270) translate(0,3)" font-family="sans-serif" font-size="10px" fill="#000" opacity="1">Florence Henderson</text><text text-anchor="end" transform="translate(386.40476190476187,7) rotate(270) translate(0,3)" font-family="sans-serif" font-size="10px" fill="#000" opacity="1">Garry Shandling</text><text text-anchor="end" transform="translate(398.3095238095238,7) rotate(270) translate(0,3)" font-family="sans-serif" font-size="10px" fill="#000" opacity="1">Gene Wilder</text><text text-anchor="end" transform="translate(410.21428571428567,7) rotate(270) translate(0,3)" font-family="sans-serif" font-size="10px" fill="#000" opacity="1">George Michael</text><text text-anchor="end" transform="translate(422.1190476190476,7) rotate(270) translate(0,3)" font-family="sans-serif" font-size="10px" fill="#000" opacity="1">Glen Campbell</text><text text-anchor="end" transform="translate(434.02380952380946,7) rotate(270) translate(0,3)" font-family="sans-serif" font-size="10px" fill="#000" opacity="1">Glenn Frey</text><text text-anchor="end" transform="translate(445.9285714285714,7) rotate(270) translate(0,3)" font-family="sans-serif" font-size="10px" fill="#000" opacity="1">Gordie Howe</text><text text-anchor="end" transform="translate(457.8333333333333,7) rotate(270) translate(0,3)" font-family="sans-serif" font-size="10px" fill="#000" opacity="1">Gregg Allman</text><text text-anchor="end" transform="translate(469.7380952380952,7) rotate(270) translate(0,3)" font-family="sans-serif" font-size="10px" fill="#000" opacity="1">Harry Anderson</text><text text-anchor="end" transform="translate(481.6428571428571,7) rotate(270) translate(0,3)" font-family="sans-serif" font-size="10px" fill="#000" opacity="1">Harry Dean Stanton</text><text text-anchor="end" transform="translate(493.54761904761904,7) rotate(270) translate(0,3)" font-family="sans-serif" font-size="10px" fill="#000" opacity="1">Hugh Hefner</text><text text-anchor="end" transform="translate(505.4523809523809,7) rotate(270) translate(0,3)" font-family="sans-serif" font-size="10px" fill="#000" opacity="1">Jerry Lewis</text><text text-anchor="end" transform="translate(517.3571428571429,7) rotate(270) translate(0,3)" font-family="sans-serif" font-size="10px" fill="#000" opacity="1">Jim Nabors</text><text text-anchor="end" transform="translate(529.2619047619048,7) rotate(270) translate(0,3)" font-family="sans-serif" font-size="10px" fill="#000" opacity="1">Johan Cruyff</text><text text-anchor="end" transform="translate(541.1666666666667,7) rotate(270) translate(0,3)" font-family="sans-serif" font-size="10px" fill="#000" opacity="1">John Glenn</text><text text-anchor="end" transform="translate(553.0714285714286,7) rotate(270) translate(0,3)" font-family="sans-serif" font-size="10px" fill="#000" opacity="1">John Heard (actor)</text><text text-anchor="end" transform="translate(564.9761904761905,7) rotate(270) translate(0,3)" font-family="sans-serif" font-size="10px" fill="#000" opacity="1">Jonah Lomu</text><text text-anchor="end" transform="translate(576.8809523809524,7) rotate(270) translate(0,3)" font-family="sans-serif" font-size="10px" fill="#000" opacity="1">Juan Gabriel</text><text text-anchor="end" transform="translate(588.7857142857143,7) rotate(270) translate(0,3)" font-family="sans-serif" font-size="10px" fill="#000" opacity="1">Kate Spade</text><text text-anchor="end" transform="translate(600.6904761904763,7) rotate(270) translate(0,3)" font-family="sans-serif" font-size="10px" fill="#000" opacity="1">Kim Jong-hyun (singer)</text><text text-anchor="end" transform="translate(612.5952380952381,7) rotate(270) translate(0,3)" font-family="sans-serif" font-size="10px" fill="#000" opacity="1">Lil Peep</text><text text-anchor="end" transform="translate(624.5,7) rotate(270) translate(0,3)" font-family="sans-serif" font-size="10px" fill="#000" opacity="1">Malcolm Young</text><text text-anchor="end" transform="translate(636.4047619047619,7) rotate(270) translate(0,3)" font-family="sans-serif" font-size="10px" fill="#000" opacity="1">Mark Salling</text><text text-anchor="end" transform="translate(648.3095238095239,7) rotate(270) translate(0,3)" font-family="sans-serif" font-size="10px" fill="#000" opacity="1">Mary Tyler Moore</text><text text-anchor="end" transform="translate(660.2142857142858,7) rotate(270) translate(0,3)" font-family="sans-serif" font-size="10px" fill="#000" opacity="1">Maureen O'Hara</text><text text-anchor="end" transform="translate(672.1190476190477,7) rotate(270) translate(0,3)" font-family="sans-serif" font-size="10px" fill="#000" opacity="1">Merle Haggard</text><text text-anchor="end" transform="translate(684.0238095238095,7) rotate(270) translate(0,3)" font-family="sans-serif" font-size="10px" fill="#000" opacity="1">Miguel Ferrer</text><text text-anchor="end" transform="translate(695.9285714285714,7) rotate(270) translate(0,3)" font-family="sans-serif" font-size="10px" fill="#000" opacity="1">Muhammad Ali</text><text text-anchor="end" transform="translate(707.8333333333334,7) rotate(270) translate(0,3)" font-family="sans-serif" font-size="10px" fill="#000" opacity="1">Nancy Reagan</text><text text-anchor="end" transform="translate(719.7380952380953,7) rotate(270) translate(0,3)" font-family="sans-serif" font-size="10px" fill="#000" opacity="1">Natalie Cole</text><text text-anchor="end" transform="translate(731.6428571428572,7) rotate(270) translate(0,3)" font-family="sans-serif" font-size="10px" fill="#000" opacity="1">Nelsan Ellis</text><text text-anchor="end" transform="translate(743.547619047619,7) rotate(270) translate(0,3)" font-family="sans-serif" font-size="10px" fill="#000" opacity="1">Om Puri</text><text text-anchor="end" transform="translate(755.452380952381,7) rotate(270) translate(0,3)" font-family="sans-serif" font-size="10px" fill="#000" opacity="1">Pat Summitt</text><text text-anchor="end" transform="translate(767.3571428571429,7) rotate(270) translate(0,3)" font-family="sans-serif" font-size="10px" fill="#000" opacity="1">Patty Duke</text><text text-anchor="end" transform="translate(779.2619047619048,7) rotate(270) translate(0,3)" font-family="sans-serif" font-size="10px" fill="#000" opacity="1">Prince (musician)</text><text text-anchor="end" transform="translate(791.1666666666667,7) rotate(270) translate(0,3)" font-family="sans-serif" font-size="10px" fill="#000" opacity="1">Prodigy (rapper)</text><text text-anchor="end" transform="translate(803.0714285714286,7) rotate(270) translate(0,3)" font-family="sans-serif" font-size="10px" fill="#000" opacity="1">R. Lee Ermey</text><text text-anchor="end" transform="translate(814.9761904761905,7) rotate(270) translate(0,3)" font-family="sans-serif" font-size="10px" fill="#000" opacity="1">Richard Benjamin Harrison</text><text text-anchor="end" transform="translate(826.8809523809524,7) rotate(270) translate(0,3)" font-family="sans-serif" font-size="10px" fill="#000" opacity="1">Roddy Piper</text><text text-anchor="end" transform="translate(838.7857142857143,7) rotate(270) translate(0,3)" font-family="sans-serif" font-size="10px" fill="#000" opacity="1">Roger Moore</text><text text-anchor="end" transform="translate(850.6904761904763,7) rotate(270) translate(0,3)" font-family="sans-serif" font-size="10px" fill="#000" opacity="1">Roy Halladay</text><text text-anchor="end" transform="translate(862.5952380952381,7) rotate(270) translate(0,3)" font-family="sans-serif" font-size="10px" fill="#000" opacity="1">Scott Weiland</text><text text-anchor="end" transform="translate(874.5,7) rotate(270) translate(0,3)" font-family="sans-serif" font-size="10px" fill="#000" opacity="1">Shashi Kapoor</text><text text-anchor="end" transform="translate(886.4047619047619,7) rotate(270) translate(0,3)" font-family="sans-serif" font-size="10px" fill="#000" opacity="1">Sridevi</text><text text-anchor="end" transform="translate(898.3095238095239,7) rotate(270) translate(0,3)" font-family="sans-serif" font-size="10px" fill="#000" opacity="1">Stephen Hawking</text><text text-anchor="end" transform="translate(910.2142857142858,7) rotate(270) translate(0,3)" font-family="sans-serif" font-size="10px" fill="#000" opacity="1">Terry Wogan</text><text text-anchor="end" transform="translate(922.1190476190477,7) rotate(270) translate(0,3)" font-family="sans-serif" font-size="10px" fill="#000" opacity="1">Tom Petty</text><text text-anchor="end" transform="translate(934.0238095238095,7) rotate(270) translate(0,3)" font-family="sans-serif" font-size="10px" fill="#000" opacity="1">TotalBiscuit</text><text text-anchor="end" transform="translate(945.9285714285714,7) rotate(270) translate(0,3)" font-family="sans-serif" font-size="10px" fill="#000" opacity="1">Verne Troyer</text><text text-anchor="end" transform="translate(957.8333333333334,7) rotate(270) translate(0,3)" font-family="sans-serif" font-size="10px" fill="#000" opacity="1">Wes Craven</text><text text-anchor="end" transform="translate(969.7380952380953,7) rotate(270) translate(0,3)" font-family="sans-serif" font-size="10px" fill="#000" opacity="1">XXXTentacion</text><text text-anchor="end" transform="translate(981.6428571428572,7) rotate(270) translate(0,3)" font-family="sans-serif" font-size="10px" fill="#000" opacity="1">Yogi Berra</text><text text-anchor="end" transform="translate(993.547619047619,7) rotate(270) translate(0,3)" font-family="sans-serif" font-size="10px" fill="#000" opacity="1">Zsa Zsa Gabor</text></g><g class="mark-rule role-axis-domain" pointer-events="none"><line transform="translate(0,0)" x2="1000" y2="0" stroke="#888" stroke-width="1" opacity="1"/></g><g class="mark-text role-axis-title" pointer-events="none"><text text-anchor="middle" transform="translate(500,139.4921875)" font-family="sans-serif" font-size="11px" font-weight="bold" fill="#000" opacity="1">name</text></g></g><path class="foreground" aria-hidden="true" d="" pointer-events="none" display="none"/></g></g><g class="mark-group role-axis" role="graphics-symbol" aria-roledescription="axis" aria-label="Y-axis titled 'median_views_adjusted_bd_1' for a linear scale with values from 0 to 22,000"><g transform="translate(0.5,0.5)"><path class="background" aria-hidden="true" d="M0,0h0v0h0Z" pointer-events="none"/><g><g class="mark-rule role-axis-tick" pointer-events="none"><line transform="translate(0,400)" x2="-5" y2="0" stroke="#888" stroke-width="1" opacity="1"/><line transform="translate(0,364)" x2="-5" y2="0" stroke="#888" stroke-width="1" opacity="1"/><line transform="translate(0,327)" x2="-5" y2="0" stroke="#888" stroke-width="1" opacity="1"/><line transform="translate(0,291)" x2="-5" y2="0" stroke="#888" stroke-width="1" opacity="1"/><line transform="translate(0,255)" x2="-5" y2="0" stroke="#888" stroke-width="1" opacity="1"/><line transform="translate(0,218)" x2="-5" y2="0" stroke="#888" stroke-width="1" opacity="1"/><line transform="translate(0,182)" x2="-5" y2="0" stroke="#888" stroke-width="1" opacity="1"/><line transform="translate(0,145)" x2="-5" y2="0" stroke="#888" stroke-width="1" opacity="1"/><line transform="translate(0,109)" x2="-5" y2="0" stroke="#888" stroke-width="1" opacity="1"/><line transform="translate(0,73)" x2="-5" y2="0" stroke="#888" stroke-width="1" opacity="1"/><line transform="translate(0,36)" x2="-5" y2="0" stroke="#888" stroke-width="1" opacity="1"/><line transform="translate(0,0)" x2="-5" y2="0" stroke="#888" stroke-width="1" opacity="1"/></g><g class="mark-text role-axis-label" pointer-events="none"><text text-anchor="end" transform="translate(-7,403)" font-family="sans-serif" font-size="10px" fill="#000" opacity="1">0</text><text text-anchor="end" transform="translate(-7,366.6363636363636)" font-family="sans-serif" font-size="10px" fill="#000" opacity="1">2,000</text><text text-anchor="end" transform="translate(-7,330.27272727272725)" font-family="sans-serif" font-size="10px" fill="#000" opacity="1">4,000</text><text text-anchor="end" transform="translate(-7,293.90909090909093)" font-family="sans-serif" font-size="10px" fill="#000" opacity="1">6,000</text><text text-anchor="end" transform="translate(-7,257.5454545454545)" font-family="sans-serif" font-size="10px" fill="#000" opacity="1">8,000</text><text text-anchor="end" transform="translate(-7,221.18181818181816)" font-family="sans-serif" font-size="10px" fill="#000" opacity="1">10,000</text><text text-anchor="end" transform="translate(-7,184.81818181818184)" font-family="sans-serif" font-size="10px" fill="#000" opacity="1">12,000</text><text text-anchor="end" transform="translate(-7,148.45454545454547)" font-family="sans-serif" font-size="10px" fill="#000" opacity="1">14,000</text><text text-anchor="end" transform="translate(-7,112.09090909090908)" font-family="sans-serif" font-size="10px" fill="#000" opacity="1">16,000</text><text text-anchor="end" transform="translate(-7,75.7272727272727)" font-family="sans-serif" font-size="10px" fill="#000" opacity="1">18,000</text><text text-anchor="end" transform="translate(-7,39.363636363636374)" font-family="sans-serif" font-size="10px" fill="#000" opacity="1">20,000</text><text text-anchor="end" transform="translate(-7,3)" font-family="sans-serif" font-size="10px" fill="#000" opacity="1">22,000</text></g><g class="mark-rule role-axis-domain" pointer-events="none"><line transform="translate(0,400)" x2="0" y2="-400" stroke="#888" stroke-width="1" opacity="1"/></g><g class="mark-text role-axis-title" pointer-events="none"><text text-anchor="middle" transform="translate(-41.5859375,200) rotate(-90) translate(0,-2)" font-family="sans-serif" font-size="11px" font-weight="bold" fill="#000" opacity="1">median_views_adjusted_bd_1</text></g></g><path class="foreground" aria-hidden="true" d="" pointer-events="none" display="none"/></g></g><g class="mark-rect role-mark layer_0_marks" role="graphics-object" aria-roledescription="rect mark container"><path aria-label="name: Roddy Piper; median_views_adjusted_bd_1: 1804" role="graphics-symbol" aria-roledescription="bar" d="M822.0238095238095,367.2h10.714285714285715v32.80000000000001h-10.714285714285715Z" fill="#0F7173"/><path aria-label="name: Wes Craven; median_views_adjusted_bd_1: 1269" role="graphics-symbol" aria-roledescription="bar" d="M952.9761904761905,376.92727272727274h10.714285714285715v23.072727272727263h-10.714285714285715Z" fill="#0F7173"/><path aria-label="name: Yogi Berra; median_views_adjusted_bd_1: 1430" role="graphics-symbol" aria-roledescription="bar" d="M976.7857142857143,374h10.714285714285715v26h-10.714285714285715Z" fill="#0F7173"/><path aria-label="name: Maureen O'Hara; median_views_adjusted_bd_1: 1792" role="graphics-symbol" aria-roledescription="bar" d="M655.3571428571429,367.41818181818184h10.714285714285715v32.581818181818164h-10.714285714285715Z" fill="#0F7173"/><path aria-label="name: Jonah Lomu; median_views_adjusted_bd_1: 1280.5" role="graphics-symbol" aria-roledescription="bar" d="M560.1190476190476,376.71818181818185h10.714285714285715v23.281818181818153h-10.714285714285715Z" fill="#0F7173"/><path aria-label="name: Scott Weiland; median_views_adjusted_bd_1: 1278" role="graphics-symbol" aria-roledescription="bar" d="M857.7380952380952,376.76363636363635h10.714285714285715v23.23636363636365h-10.714285714285715Z" fill="#0F7173"/><path aria-label="name: Natalie Cole; median_views_adjusted_bd_1: 718" role="graphics-symbol" aria-roledescription="bar" d="M714.8809523809524,386.94545454545454h10.714285714285715v13.054545454545462h-10.714285714285715Z" fill="#0F7173"/><path aria-label="name: David Bowie; median_views_adjusted_bd_1: 9605" role="graphics-symbol" aria-roledescription="bar" d="M286.3095238095238,225.36363636363637h10.714285714285715v174.63636363636363h-10.714285714285715Z" fill="#0F7173"/><path aria-label="name: Alan Rickman; median_views_adjusted_bd_1: 3817" role="graphics-symbol" aria-roledescription="bar" d="M12.499999999999979,330.6h10.714285714285715v69.39999999999998h-10.714285714285715Z" fill="#0F7173"/><path aria-label="name: Glenn Frey; median_views_adjusted_bd_1: 1370" role="graphics-symbol" aria-roledescription="bar" d="M429.16666666666663,375.0909090909091h10.714285714285715v24.909090909090878h-10.714285714285715Z" fill="#0F7173"/><path aria-label="name: Terry Wogan; median_views_adjusted_bd_1: 512.5" role="graphics-symbol" aria-roledescription="bar" d="M905.3571428571429,390.6818181818182h10.714285714285715v9.318181818181813h-10.714285714285715Z" fill="#0F7173"/><path aria-label="name: Antonin Scalia; median_views_adjusted_bd_1: 1331" role="graphics-symbol" aria-roledescription="bar" d="M72.0238095238095,375.8h10.714285714285715v24.19999999999999h-10.714285714285715Z" fill="#0F7173"/><path aria-label="name: Nancy Reagan; median_views_adjusted_bd_1: 3393" role="graphics-symbol" aria-roledescription="bar" d="M702.9761904761905,338.3090909090909h10.714285714285715v61.69090909090909h-10.714285714285715Z" fill="#0F7173"/><path aria-label="name: Johan Cruyff; median_views_adjusted_bd_1: 1461" role="graphics-symbol" aria-roledescription="bar" d="M524.4047619047619,373.43636363636364h10.714285714285715v26.563636363636363h-10.714285714285715Z" fill="#0F7173"/><path aria-label="name: Garry Shandling; median_views_adjusted_bd_1: 553" role="graphics-symbol" aria-roledescription="bar" d="M381.54761904761904,389.94545454545454h10.714285714285715v10.054545454545462h-10.714285714285715Z" fill="#0F7173"/><path aria-label="name: Patty Duke; median_views_adjusted_bd_1: 1767.5" role="graphics-symbol" aria-roledescription="bar" d="M762.5,367.8636363636364h10.714285714285715v32.136363636363626h-10.714285714285715Z" fill="#0F7173"/><path aria-label="name: Merle Haggard; median_views_adjusted_bd_1: 1520.5" role="graphics-symbol" aria-roledescription="bar" d="M667.2619047619048,372.3545454545455h10.714285714285715v27.645454545454527h-10.714285714285715Z" fill="#0F7173"/><path aria-label="name: Chyna; median_views_adjusted_bd_1: 4195.5" role="graphics-symbol" aria-roledescription="bar" d="M274.40476190476187,323.7181818181818h10.714285714285715v76.28181818181821h-10.714285714285715Z" fill="#0F7173"/><path aria-label="name: Prince (musician); median_views_adjusted_bd_1: 8216" role="graphics-symbol" aria-roledescription="bar" d="M774.4047619047619,250.6181818181818h10.714285714285715v149.3818181818182h-10.714285714285715Z" fill="#0F7173"/><path aria-label="name: Muhammad Ali; median_views_adjusted_bd_1: 14970" role="graphics-symbol" aria-roledescription="bar" d="M691.0714285714286,127.81818181818183h10.714285714285715v272.1818181818182h-10.714285714285715Z" fill="#0F7173"/><path aria-label="name: Gordie Howe; median_views_adjusted_bd_1: 1068" role="graphics-symbol" aria-roledescription="bar" d="M441.07142857142856,380.58181818181816h10.714285714285715v19.418181818181836h-10.714285714285715Z" fill="#0F7173"/><path aria-label="name: Christina Grimmie; median_views_adjusted_bd_1: 1017" role="graphics-symbol" aria-roledescription="bar" d="M250.59523809523807,381.5090909090909h10.714285714285715v18.4909090909091h-10.714285714285715Z" fill="#0F7173"/><path aria-label="name: Anton Yelchin; median_views_adjusted_bd_1: 2109" role="graphics-symbol" aria-roledescription="bar" d="M60.1190476190476,361.6545454545454h10.714285714285715v38.34545454545457h-10.714285714285715Z" fill="#0F7173"/><path aria-label="name: Pat Summitt; median_views_adjusted_bd_1: 387" role="graphics-symbol" aria-roledescription="bar" d="M750.5952380952381,392.96363636363634h10.714285714285715v7.03636363636366h-10.714285714285715Z" fill="#0F7173"/><path aria-label="name: Caroline Aherne; median_views_adjusted_bd_1: 533" role="graphics-symbol" aria-roledescription="bar" d="M167.26190476190476,390.3090909090909h10.714285714285715v9.690909090909088h-10.714285714285715Z" fill="#0F7173"/><path aria-label="name: Juan Gabriel; median_views_adjusted_bd_1: 537" role="graphics-symbol" aria-roledescription="bar" d="M572.0238095238095,390.23636363636365h10.714285714285715v9.763636363636351h-10.714285714285715Z" fill="#0F7173"/><path aria-label="name: Gene Wilder; median_views_adjusted_bd_1: 4071" role="graphics-symbol" aria-roledescription="bar" d="M393.45238095238096,325.9818181818182h10.714285714285715v74.0181818181818h-10.714285714285715Z" fill="#0F7173"/><path aria-label="name: Alexis Arquette; median_views_adjusted_bd_1: 1653.5" role="graphics-symbol" aria-roledescription="bar" d="M36.30952380952379,369.93636363636364h10.714285714285715v30.063636363636363h-10.714285714285715Z" fill="#0F7173"/><path aria-label="name: Arnold Palmer; median_views_adjusted_bd_1: 1265.5" role="graphics-symbol" aria-roledescription="bar" d="M83.92857142857142,376.9909090909091h10.714285714285715v23.0090909090909h-10.714285714285715Z" fill="#0F7173"/><path aria-label="name: Bhumibol Adulyadej; median_views_adjusted_bd_1: 1991" role="graphics-symbol" aria-roledescription="bar" d="M119.64285714285712,363.8h10.714285714285715v36.19999999999999h-10.714285714285715Z" fill="#0F7173"/><path aria-label="name: Florence Henderson; median_views_adjusted_bd_1: 970" role="graphics-symbol" aria-roledescription="bar" d="M369.6428571428571,382.3636363636364h10.714285714285715v17.636363636363626h-10.714285714285715Z" fill="#0F7173"/><path aria-label="name: Fidel Castro; median_views_adjusted_bd_1: 6354" role="graphics-symbol" aria-roledescription="bar" d="M357.73809523809524,284.47272727272724h10.714285714285715v115.52727272727276h-10.714285714285715Z" fill="#0F7173"/><path aria-label="name: John Glenn; median_views_adjusted_bd_1: 1970.5" role="graphics-symbol" aria-roledescription="bar" d="M536.3095238095239,364.1727272727273h10.714285714285715v35.827272727272714h-10.714285714285715Z" fill="#0F7173"/><path aria-label="name: Alan Thicke; median_views_adjusted_bd_1: 1454" role="graphics-symbol" aria-roledescription="bar" d="M24.404761904761884,373.56363636363636h10.714285714285715v26.436363636363637h-10.714285714285715Z" fill="#0F7173"/><path aria-label="name: Zsa Zsa Gabor; median_views_adjusted_bd_1: 3451" role="graphics-symbol" aria-roledescription="bar" d="M988.6904761904761,337.25454545454545h10.714285714285715v62.74545454545455h-10.714285714285715Z" fill="#0F7173"/><path aria-label="name: George Michael; median_views_adjusted_bd_1: 3539" role="graphics-symbol" aria-roledescription="bar" d="M405.35714285714283,335.6545454545454h10.714285714285715v64.34545454545457h-10.714285714285715Z" fill="#0F7173"/><path aria-label="name: Carrie Fisher; median_views_adjusted_bd_1: 6711" role="graphics-symbol" aria-roledescription="bar" d="M179.16666666666666,277.98181818181814h10.714285714285715v122.01818181818186h-10.714285714285715Z" fill="#0F7173"/><path aria-label="name: Debbie Reynolds; median_views_adjusted_bd_1: 2901" role="graphics-symbol" aria-roledescription="bar" d="M322.0238095238095,347.25454545454545h10.714285714285715v52.74545454545455h-10.714285714285715Z" fill="#0F7173"/><path aria-label="name: Om Puri; median_views_adjusted_bd_1: 1503" role="graphics-symbol" aria-roledescription="bar" d="M738.6904761904761,372.6727272727273h10.714285714285715v27.327272727272714h-10.714285714285715Z" fill="#0F7173"/><path aria-label="name: Miguel Ferrer; median_views_adjusted_bd_1: 1328.5" role="graphics-symbol" aria-roledescription="bar" d="M679.1666666666666,375.8454545454546h10.714285714285715v24.154545454545428h-10.714285714285715Z" fill="#0F7173"/><path aria-label="name: Mary Tyler Moore; median_views_adjusted_bd_1: 2456" role="graphics-symbol" aria-roledescription="bar" d="M643.452380952381,355.3454545454545h10.714285714285715v44.654545454545485h-10.714285714285715Z" fill="#0F7173"/><path aria-label="name: Bill Paxton; median_views_adjusted_bd_1: 2197" role="graphics-symbol" aria-roledescription="bar" d="M131.54761904761904,360.05454545454546h10.714285714285715v39.94545454545454h-10.714285714285715Z" fill="#0F7173"/><path aria-label="name: Chuck Berry; median_views_adjusted_bd_1: 3032.5" role="graphics-symbol" aria-roledescription="bar" d="M262.5,344.8636363636364h10.714285714285715v55.136363636363626h-10.714285714285715Z" fill="#0F7173"/><path aria-label="name: David Rockefeller; median_views_adjusted_bd_1: 2324" role="graphics-symbol" aria-roledescription="bar" d="M310.1190476190476,357.74545454545455h10.714285714285715v42.25454545454545h-10.714285714285715Z" fill="#0F7173"/><path aria-label="name: Don Rickles; median_views_adjusted_bd_1: 2102" role="graphics-symbol" aria-roledescription="bar" d="M345.8333333333333,361.78181818181815h10.714285714285715v38.21818181818185h-10.714285714285715Z" fill="#0F7173"/><path aria-label="name: Charlie Murphy; median_views_adjusted_bd_1: 1140" role="graphics-symbol" aria-roledescription="bar" d="M214.88095238095235,379.2727272727273h10.714285714285715v20.72727272727269h-10.714285714285715Z" fill="#0F7173"/><path aria-label="name: Chris Cornell; median_views_adjusted_bd_1: 2259" role="graphics-symbol" aria-roledescription="bar" d="M238.69047619047618,358.92727272727274h10.714285714285715v41.07272727272726h-10.714285714285715Z" fill="#0F7173"/><path aria-label="name: Roger Moore; median_views_adjusted_bd_1: 3420.5" role="graphics-symbol" aria-roledescription="bar" d="M833.9285714285714,337.8090909090909h10.714285714285715v62.19090909090909h-10.714285714285715Z" fill="#0F7173"/><path aria-label="name: Gregg Allman; median_views_adjusted_bd_1: 1350" role="graphics-symbol" aria-roledescription="bar" d="M452.9761904761905,375.45454545454544h10.714285714285715v24.54545454545456h-10.714285714285715Z" fill="#0F7173"/><path aria-label="name: Adam West; median_views_adjusted_bd_1: 2302" role="graphics-symbol" aria-roledescription="bar" d="M0.5952380952380736,358.1454545454545h10.714285714285715v41.85454545454547h-10.714285714285715Z" fill="#0F7173"/><path aria-label="name: Prodigy (rapper); median_views_adjusted_bd_1: 611" role="graphics-symbol" aria-roledescription="bar" d="M786.3095238095239,388.8909090909091h10.714285714285715v11.109090909090924h-10.714285714285715Z" fill="#0F7173"/><path aria-label="name: Nelsan Ellis; median_views_adjusted_bd_1: 661.5" role="graphics-symbol" aria-roledescription="bar" d="M726.7857142857143,387.9727272727273h10.714285714285715v12.027272727272702h-10.714285714285715Z" fill="#0F7173"/><path aria-label="name: Chester Bennington; median_views_adjusted_bd_1: 1606.5" role="graphics-symbol" aria-roledescription="bar" d="M226.78571428571428,370.79090909090905h10.714285714285715v29.209090909090946h-10.714285714285715Z" fill="#0F7173"/><path aria-label="name: John Heard (actor); median_views_adjusted_bd_1: 1048" role="graphics-symbol" aria-roledescription="bar" d="M548.2142857142857,380.94545454545454h10.714285714285715v19.054545454545462h-10.714285714285715Z" fill="#0F7173"/><path aria-label="name: Glen Campbell; median_views_adjusted_bd_1: 3117" role="graphics-symbol" aria-roledescription="bar" d="M417.26190476190476,343.3272727272727h10.714285714285715v56.672727272727286h-10.714285714285715Z" fill="#0F7173"/><path aria-label="name: Bruce Forsyth; median_views_adjusted_bd_1: 1046" role="graphics-symbol" aria-roledescription="bar" d="M155.35714285714283,380.9818181818182h10.714285714285715v19.0181818181818h-10.714285714285715Z" fill="#0F7173"/><path aria-label="name: Jerry Lewis; median_views_adjusted_bd_1: 3497" role="graphics-symbol" aria-roledescription="bar" d="M500.5952380952381,336.41818181818184h10.714285714285715v63.581818181818164h-10.714285714285715Z" fill="#0F7173"/><path aria-label="name: Harry Dean Stanton; median_views_adjusted_bd_1: 1475" role="graphics-symbol" aria-roledescription="bar" d="M476.7857142857143,373.1818181818182h10.714285714285715v26.818181818181813h-10.714285714285715Z" fill="#0F7173"/><path aria-label="name: Hugh Hefner; median_views_adjusted_bd_1: 5275" role="graphics-symbol" aria-roledescription="bar" d="M488.6904761904762,304.0909090909091h10.714285714285715v95.90909090909088h-10.714285714285715Z" fill="#0F7173"/><path aria-label="name: Tom Petty; median_views_adjusted_bd_1: 2565.5" role="graphics-symbol" aria-roledescription="bar" d="M917.2619047619048,353.3545454545455h10.714285714285715v46.64545454545453h-10.714285714285715Z" fill="#0F7173"/><path aria-label="name: Roy Halladay; median_views_adjusted_bd_1: 456.5" role="graphics-symbol" aria-roledescription="bar" d="M845.8333333333334,391.7h10.714285714285715v8.300000000000011h-10.714285714285715Z" fill="#0F7173"/><path aria-label="name: Lil Peep; median_views_adjusted_bd_1: 1464" role="graphics-symbol" aria-roledescription="bar" d="M607.7380952380952,373.3818181818182h10.714285714285715v26.618181818181824h-10.714285714285715Z" fill="#0F7173"/><path aria-label="name: Malcolm Young; median_views_adjusted_bd_1: 1543" role="graphics-symbol" aria-roledescription="bar" d="M619.6428571428571,371.94545454545454h10.714285714285715v28.054545454545462h-10.714285714285715Z" fill="#0F7173"/><path aria-label="name: Charles Manson; median_views_adjusted_bd_1: 14621" role="graphics-symbol" aria-roledescription="bar" d="M202.97619047619045,134.16363636363636h10.714285714285715v265.83636363636367h-10.714285714285715Z" fill="#0F7173"/><path aria-label="name: David Cassidy; median_views_adjusted_bd_1: 1844.5" role="graphics-symbol" aria-roledescription="bar" d="M298.2142857142857,366.46363636363634h10.714285714285715v33.53636363636366h-10.714285714285715Z" fill="#0F7173"/><path aria-label="name: Jim Nabors; median_views_adjusted_bd_1: 1821" role="graphics-symbol" aria-roledescription="bar" d="M512.5,366.89090909090913h10.714285714285715v33.10909090909087h-10.714285714285715Z" fill="#0F7173"/><path aria-label="name: Shashi Kapoor; median_views_adjusted_bd_1: 2508" role="graphics-symbol" aria-roledescription="bar" d="M869.6428571428571,354.4h10.714285714285715v45.60000000000002h-10.714285714285715Z" fill="#0F7173"/><path aria-label="name: Kim Jong-hyun (singer); median_views_adjusted_bd_1: 717" role="graphics-symbol" aria-roledescription="bar" d="M595.8333333333334,386.96363636363634h10.714285714285715v13.03636363636366h-10.714285714285715Z" fill="#0F7173"/><path aria-label="name: Dolores O'Riordan; median_views_adjusted_bd_1: 1054" role="graphics-symbol" aria-roledescription="bar" d="M333.92857142857144,380.8363636363636h10.714285714285715v19.163636363636385h-10.714285714285715Z" fill="#0F7173"/><path aria-label="name: Mark Salling; median_views_adjusted_bd_1: 1038.5" role="graphics-symbol" aria-roledescription="bar" d="M631.547619047619,381.1181818181818h10.714285714285715v18.881818181818176h-10.714285714285715Z" fill="#0F7173"/><path aria-label="name: Billy Graham; median_views_adjusted_bd_1: 3000" role="graphics-symbol" aria-roledescription="bar" d="M143.45238095238093,345.45454545454544h10.714285714285715v54.54545454545456h-10.714285714285715Z" fill="#0F7173"/><path aria-label="name: Sridevi; median_views_adjusted_bd_1: 3826" role="graphics-symbol" aria-roledescription="bar" d="M881.547619047619,330.43636363636364h10.714285714285715v69.56363636363636h-10.714285714285715Z" fill="#0F7173"/><path aria-label="name: Stephen Hawking; median_views_adjusted_bd_1: 20774" role="graphics-symbol" aria-roledescription="bar" d="M893.452380952381,22.290909090909096h10.714285714285715v377.7090909090909h-10.714285714285715Z" fill="#0F7173"/><path aria-label="name: R. Lee Ermey; median_views_adjusted_bd_1: 2200" role="graphics-symbol" aria-roledescription="bar" d="M798.2142857142857,360h10.714285714285715v40h-10.714285714285715Z" fill="#0F7173"/><path aria-label="name: Harry Anderson; median_views_adjusted_bd_1: 806" role="graphics-symbol" aria-roledescription="bar" d="M464.88095238095235,385.3454545454546h10.714285714285715v14.654545454545428h-10.714285714285715Z" fill="#0F7173"/><path aria-label="name: Barbara Bush; median_views_adjusted_bd_1: 1641" role="graphics-symbol" aria-roledescription="bar" d="M107.73809523809521,370.16363636363633h10.714285714285715v29.83636363636367h-10.714285714285715Z" fill="#0F7173"/><path aria-label="name: Avicii; median_views_adjusted_bd_1: 2528" role="graphics-symbol" aria-roledescription="bar" d="M95.83333333333331,354.03636363636366h10.714285714285715v45.96363636363634h-10.714285714285715Z" fill="#0F7173"/><path aria-label="name: Verne Troyer; median_views_adjusted_bd_1: 1528" role="graphics-symbol" aria-roledescription="bar" d="M941.0714285714286,372.21818181818185h10.714285714285715v27.781818181818153h-10.714285714285715Z" fill="#0F7173"/><path aria-label="name: TotalBiscuit; median_views_adjusted_bd_1: 804" role="graphics-symbol" aria-roledescription="bar" d="M929.1666666666666,385.3818181818182h10.714285714285715v14.618181818181824h-10.714285714285715Z" fill="#0F7173"/><path aria-label="name: Kate Spade; median_views_adjusted_bd_1: 1061.5" role="graphics-symbol" aria-roledescription="bar" d="M583.9285714285714,380.7h10.714285714285715v19.30000000000001h-10.714285714285715Z" fill="#0F7173"/><path aria-label="name: Anthony Bourdain; median_views_adjusted_bd_1: 4152" role="graphics-symbol" aria-roledescription="bar" d="M48.214285714285694,324.5090909090909h10.714285714285715v75.4909090909091h-10.714285714285715Z" fill="#0F7173"/><path aria-label="name: XXXTentacion; median_views_adjusted_bd_1: 10297" role="graphics-symbol" aria-roledescription="bar" d="M964.8809523809524,212.78181818181818h10.714285714285715v187.21818181818182h-10.714285714285715Z" fill="#0F7173"/><path aria-label="name: Charles Krauthammer; median_views_adjusted_bd_1: 1446" role="graphics-symbol" aria-roledescription="bar" d="M191.07142857142856,373.7090909090909h10.714285714285715v26.29090909090911h-10.714285714285715Z" fill="#0F7173"/><path aria-label="name: Richard Benjamin Harrison; median_views_adjusted_bd_1: 1505" role="graphics-symbol" aria-roledescription="bar" d="M810.1190476190476,372.6363636363636h10.714285714285715v27.363636363636374h-10.714285714285715Z" fill="#0F7173"/></g></g><path class="foreground" aria-hidden="true" d="" display="none"/></g></g></g></svg>